<svg width="197" height="182" viewBox="0 0 197 182" fill="none" xmlns="http://www.w3.org/2000/svg">
<path d="M107.112 61.0859C110.207 59.3805 113.902 59.1529 117.182 60.4668H117.183L134.454 67.3828C137.109 68.4463 139.28 70.4362 140.572 72.9717L140.819 73.4863L153.354 101.344L153.5 101.669L153.777 101.894L167.459 112.968C172.518 117.063 173.299 124.483 169.203 129.542H169.202C165.107 134.6 157.689 135.382 152.63 131.287L136.49 118.222C135.598 117.498 134.818 116.651 134.174 115.709L132.373 113.073L131.493 116.143L126.32 134.197L126.072 135.061L126.717 135.687L140.463 149.045C146.383 154.798 150.959 161.785 153.864 169.511L163.389 194.827C165.68 200.92 162.6 207.714 156.509 210.006C150.417 212.298 143.621 209.217 141.329 203.126L131.806 177.809C130.121 173.331 127.469 169.282 124.039 165.947L124.038 165.946L117.439 159.533L115.988 158.123L115.062 159.921L107.702 174.188L107.7 174.192C107.508 174.568 107.291 174.935 107.054 175.294L87.0527 205.485C83.4589 210.911 76.1463 212.396 70.7207 208.801V208.8C65.2954 205.206 63.811 197.894 67.4062 192.469L87.0068 162.881L87.0518 162.812L87.0889 162.74L98.0664 141.457L98.5156 140.586L97.8984 139.825C92.8781 133.635 90.7884 125.527 92.2529 117.627L96.0986 96.873L96.6758 93.7549L93.8994 95.2861L90.4336 97.1963C88.9655 98.0047 87.7739 99.2327 87.0078 100.721L76.7627 120.607C73.7825 126.392 66.6758 128.666 60.8906 125.686C55.1046 122.705 52.8309 115.599 55.8105 109.814L66.0547 89.9268L66.0557 89.9277C68.9665 84.2802 73.49 79.6256 79.0537 76.5576L107.112 61.0859ZM139.349 14.5C151.972 14.5 162.204 24.7322 162.204 37.3535C162.204 49.9749 151.972 60.207 139.349 60.207C126.727 60.207 116.495 49.975 116.495 37.3535C116.495 24.7321 126.728 14.5 139.349 14.5Z" fill="black" stroke="white" stroke-width="3"/>
</svg>
