<svg width="29" height="21" viewBox="0 0 29 21" fill="none" xmlns="http://www.w3.org/2000/svg">
<path d="M24.2525 0.304391C23.8466 -0.101464 23.2379 -0.101464 22.8317 0.304391C22.4259 0.710246 22.4259 1.31901 22.8317 1.72513C25.1659 4.05904 26.3834 7.10316 26.3834 10.3502C26.3834 13.5973 25.1656 16.6417 22.8317 18.9754C22.4259 19.3812 22.4259 19.99 22.8317 20.3961C23.0347 20.599 23.339 20.7005 23.542 20.7005C23.7449 20.7005 24.0493 20.599 24.2523 20.3961C26.8906 17.7578 28.4128 14.1046 28.4128 10.3498C28.413 6.59514 26.8911 2.9422 24.2525 0.303488L24.2525 0.304391Z" fill="black"/>
<path d="M21.3101 3.24726C20.9042 2.84141 20.2955 2.84141 19.8894 3.24726C19.4835 3.65312 19.4835 4.26188 19.8894 4.668C23.035 7.81364 23.035 12.8877 19.8894 16.033C19.4835 16.4389 19.4835 17.0476 19.8894 17.4538C20.0923 17.6567 20.3967 17.7582 20.5996 17.7582C20.8026 17.7582 21.1069 17.6567 21.3099 17.4538C25.2677 13.5977 25.2677 7.10324 21.3102 3.247L21.3101 3.24726Z" fill="black"/>
<path d="M14.2068 4.36377C10.9595 4.36377 8.21973 7.0021 8.21973 10.3509C8.21973 13.6997 10.8581 16.338 14.2068 16.338C17.5556 16.338 20.194 13.6997 20.194 10.3509C20.1937 7.0021 17.4539 4.36377 14.2068 4.36377ZM14.2068 11.3653C13.5981 11.3653 13.1922 10.858 13.1922 10.3507C13.1922 9.84339 13.5981 9.33607 14.2068 9.33607C14.7142 9.33607 15.2215 9.74193 15.2215 10.3507C15.2215 10.858 14.8156 11.3653 14.2068 11.3653Z" fill="black"/>
<path d="M2.02957 10.3507C2.02957 7.1034 3.24741 4.05927 5.58125 1.72562C5.98711 1.31976 5.98711 0.710999 5.58125 0.304879C5.1754 -0.100975 4.56663 -0.100975 4.16051 0.304879C1.52219 2.9432 0 6.59634 0 10.3512C0 14.106 1.52219 17.7588 4.16051 20.3975C4.36344 20.6004 4.66783 20.7019 4.87079 20.7019C5.07371 20.7019 5.3781 20.6004 5.58106 20.3975C5.98692 19.9916 5.98692 19.3829 5.58106 18.9768C3.24715 16.6428 2.02957 13.5985 2.02957 10.3516V10.3507Z" fill="black"/>
<path d="M8.52367 4.668C8.92952 4.26215 8.92952 3.65338 8.52367 3.24726C8.11781 2.84141 7.50879 2.84141 7.10293 3.24726C3.14538 7.10336 3.14538 13.5978 7.10293 17.454C7.30585 17.6569 7.61025 17.7584 7.8132 17.7584C8.01613 17.7584 8.32052 17.657 8.52348 17.454C8.92933 17.0482 8.92933 16.4394 8.52348 16.0333C5.37784 12.8876 5.37784 7.81357 8.52373 4.66826L8.52367 4.668Z" fill="black"/>
</svg>
