<svg width="202" height="181" viewBox="0 0 202 181" fill="none" xmlns="http://www.w3.org/2000/svg">
<mask id="mask0_25_40" style="mask-type:luminance" maskUnits="userSpaceOnUse" x="87" y="56" width="81" height="188">
<path d="M87.5684 56.9434H167.959V243.038H87.5684V56.9434Z" fill="white"/>
</mask>
<g mask="url(#mask0_25_40)">
<path d="M87.7788 98.4303V229.864C87.7788 237.145 93.6779 243.042 100.957 243.042C108.233 243.042 114.134 237.145 114.134 229.864V146.435H119.501L136.933 232.429C138.38 239.564 145.336 244.173 152.466 242.725C159.597 241.278 164.211 234.326 162.762 227.194L146.111 145.056C146.678 145.172 147.252 145.24 147.82 145.24C150.958 145.24 153.979 143.499 155.466 140.497C164.289 122.673 167.84 108.448 167.856 96.7395C167.867 88.9617 166.228 82.3261 163.583 76.9692C159.614 68.8904 153.586 63.9559 148.704 61.1652C144.462 58.7353 141.004 57.7764 139.75 57.4736C138.945 57.2119 138.087 57.0642 137.193 57.0642H125.991C121.391 67.369 117.116 75.5656 112.957 82.0107C108.959 88.1567 100.606 98.4486 87.7792 98.4295L87.7788 98.4303ZM150.804 96.7424C150.815 102.761 149.404 110.776 145.432 121.079V80.2279C148.254 83.4971 150.733 88.1703 150.804 96.7424Z" fill="black"/>
</g>
<mask id="mask1_25_40" style="mask-type:luminance" maskUnits="userSpaceOnUse" x="92" y="1" width="49" height="47">
<path d="M92.3535 1.95679H140.684V47.8493H92.3535V1.95679Z" fill="white"/>
</mask>
<g mask="url(#mask1_25_40)">
<path d="M117.189 39.9799C118.663 39.9799 120.099 40.2809 121.458 40.8772C124.065 42.0192 126.073 44.1071 127.11 46.7595C127.19 46.967 127.252 47.1782 127.319 47.3876C133.478 44.3053 138.271 38.6097 139.953 31.3779C142.957 18.4805 134.936 5.59213 122.04 2.58849C109.143 -0.413434 96.2527 7.60525 93.2491 20.5032C90.6042 31.8679 96.5183 43.2216 106.784 47.8159C106.995 47.3355 107.206 46.8532 107.418 46.371C109.12 42.4868 112.954 39.9804 117.188 39.9804L117.189 39.9799Z" fill="black"/>
</g>
<path d="M83.1708 95.1767C83.4699 95.401 83.7801 95.6141 84.1148 95.8029C84.126 95.8085 84.1391 95.8123 84.1484 95.8197C84.4064 95.9637 84.6699 96.0833 84.9353 96.1955C85.1503 96.2945 85.3503 96.4104 85.5746 96.5002C86.2755 96.7787 87.0195 96.9768 87.7765 97.1282C88.5634 97.2852 89.3635 97.3936 90.1654 97.3936H90.2364C93.7243 97.3805 96.7877 96.0534 99.4382 94.2066C103.431 91.3785 107.027 87.2141 111.166 80.8551C114.917 75.0421 119.037 67.3447 123.661 57.0657C124.102 56.0843 124.545 55.0899 124.996 54.0638C125.829 52.1572 125.908 50.1123 125.368 48.2598C124.684 45.9196 123.011 43.8878 120.603 42.8354C116.291 40.9475 111.263 42.9139 109.375 47.2261C109.169 47.6972 108.967 48.1458 108.765 48.6037C107.405 51.6749 106.096 54.4991 104.846 57.0677C103.827 59.1594 102.848 61.0846 101.906 62.8602C98.6905 68.9277 95.937 73.2138 93.7315 76.0232C92.0866 78.1391 90.7557 79.4045 89.9707 80.012C89.8922 79.9952 89.8137 79.9971 89.7333 79.984C92.5165 77.2643 96.5316 69.9242 100.883 60.7855C101.459 59.5761 102.042 58.3349 102.627 57.0695H96.016C95.6776 57.0695 95.3431 57.0957 95.016 57.1368C94.6272 57.0826 94.2328 57.0433 93.829 57.0433C90.0925 57.0172 86.7728 58.7368 84.6755 60.6883C81.4679 63.6734 79.9314 67.053 78.7893 70.449C77.692 73.8585 77.1518 77.3669 77.1406 80.8457C77.1537 83.2757 77.3911 85.6778 78.2061 88.2029C78.9538 90.4086 80.238 93.1096 83.1708 95.1767Z" fill="black"/>
</svg>
