<svg width="152" height="167" viewBox="0 0 152 167" fill="none" xmlns="http://www.w3.org/2000/svg">
<path d="M90.4259 65.1953C87.3208 65.1991 84.3406 64.0206 82.1422 61.917C79.9425 59.8121 78.704 56.9569 78.6972 53.9766C78.6919 50.9965 79.9185 48.1362 82.1089 46.0249C84.3006 43.9124 87.2755 42.7224 90.3807 42.7149C93.4844 42.7073 96.4659 43.8845 98.6671 45.9854C100.869 48.0877 102.111 50.9416 102.12 53.9218C102.133 56.9071 100.908 59.775 98.7136 61.8902C96.518 64.0052 93.5365 65.1953 90.4259 65.1953ZM90.4259 93.2627C52.2784 93.2627 33.3423 57.997 32.5539 56.4869L31.2356 53.9233L32.5539 51.393C33.3424 49.9469 52.2781 14.666 90.4259 14.666C128.574 14.666 147.509 49.948 148.298 51.4419L149.616 53.9226L148.298 56.4364C147.509 57.9985 128.574 93.2645 90.4259 93.2645V93.2627ZM90.4259 31.5086C84.2159 31.5086 78.2591 33.8772 73.869 38.0934C69.4803 42.3108 67.0164 48.0276 67.0205 53.989C67.0245 59.9492 69.4977 65.6637 73.8945 69.8733C78.2901 74.0841 84.2506 76.445 90.4605 76.4362C96.6705 76.4273 102.623 74.0498 107.007 69.8273C111.39 65.605 113.845 59.883 113.832 53.9225C113.818 47.9738 111.345 42.272 106.958 38.0699C102.57 33.8678 96.6243 31.5086 90.4259 31.5086ZM9.2338 112.243C10.2002 110.05 12.0773 108.345 14.411 107.536C16.7448 106.728 19.3241 106.891 21.5266 107.987L66.7292 130.401C69.9339 132.148 73.5567 133.065 77.242 133.064H119.943V126.227H77.242C74.7834 126.111 72.5613 124.785 71.3651 122.721C70.169 120.656 70.169 118.144 71.3651 116.079C72.5611 114.014 74.7836 112.688 77.242 112.571H132.8L162.625 124.074V153.654H71.8799L13.2059 123.089C11.2571 122.079 9.77042 120.409 9.035 118.403C8.30087 116.398 8.37125 114.201 9.23413 112.243L9.2338 112.243Z" fill="black"/>
</svg>
