<svg width="848" height="256" viewBox="0 0 848 256" fill="none" xmlns="http://www.w3.org/2000/svg">
<circle cx="127.753" cy="88.301" r="73.2712" fill="#FDB833"/>
<path d="M127.753 240.077L64.2986 126.245L191.208 126.245L127.753 240.077Z" fill="#FDB833"/>
<rect x="97.6594" y="151.105" width="60.1871" height="88.9722" rx="30.0935" fill="#FDB833"/>
<rect x="99.3789" y="110.544" width="7.85049" height="20.9346" rx="3.92525" transform="rotate(45 99.3789 110.544)" fill="white"/>
<rect x="115.01" y="118.853" width="7.85049" height="20.9346" rx="3.92525" transform="rotate(18.5125 115.01 118.853)" fill="white"/>
<rect width="7.85049" height="20.9346" rx="3.92525" transform="matrix(-0.707107 0.707107 0.707107 0.707107 156.062 110.544)" fill="white"/>
<rect width="7.85049" height="20.9346" rx="3.92525" transform="matrix(-0.948254 0.317512 0.317512 0.948254 140.431 118.852)" fill="white"/>
<rect x="156.063" y="64" width="7.85049" height="20.9346" rx="3.92525" transform="rotate(-135 156.063 64)" fill="white"/>
<rect x="140.432" y="55.6914" width="7.85049" height="20.9346" rx="3.92525" transform="rotate(-161.487 140.432 55.6914)" fill="white"/>
<rect width="7.85049" height="20.9346" rx="3.92525" transform="matrix(0.707107 -0.707107 -0.707107 -0.707107 99.3794 64)" fill="white"/>
<rect width="7.85049" height="20.9346" rx="3.92525" transform="matrix(0.948254 -0.317512 -0.317512 -0.948254 115.01 55.6914)" fill="white"/>
<path d="M85.4827 189.753C85.4827 186.641 88.0061 184.117 91.1189 184.117H160.633C163.745 184.117 166.269 186.641 166.269 189.753C166.269 192.866 163.745 195.39 160.633 195.39H91.1189C88.0061 195.39 85.4827 192.866 85.4827 189.753Z" fill="white"/>
<path d="M164.82 89.9016C171.698 103.921 140.372 103.146 125.346 103.146C110.32 103.146 82.8042 103.921 91.4789 89.9016C100.154 75.8819 111.831 71.6011 126.857 71.6011C141.883 71.6011 157.942 75.8819 164.82 89.9016Z" fill="white"/>
<path d="M141.95 85.1701C141.95 93.0098 133.079 99.3651 128.161 99.3651C123.242 99.3651 113.56 94.6334 113.56 85.1701C113.56 75.7068 118.445 70.9751 128.161 70.9751C137.876 70.9751 141.95 77.3304 141.95 85.1701Z" fill="black"/>
<path d="M291.021 145.025C285.253 145.025 280.083 144.088 275.513 142.215C270.943 140.343 267.272 137.571 264.5 133.9C261.803 130.229 260.38 125.808 260.23 120.639H280.683C280.982 123.561 281.994 125.808 283.717 127.382C285.44 128.88 287.688 129.629 290.46 129.629C293.306 129.629 295.554 128.992 297.202 127.719C298.85 126.37 299.674 124.535 299.674 122.212C299.674 120.265 299 118.654 297.652 117.38C296.378 116.107 294.767 115.058 292.819 114.234C290.946 113.409 288.249 112.473 284.728 111.424C279.634 109.851 275.476 108.278 272.254 106.704C269.033 105.131 266.261 102.809 263.939 99.737C261.616 96.6653 260.455 92.6572 260.455 87.7126C260.455 80.3706 263.114 74.6394 268.434 70.5189C273.753 66.3235 280.683 64.2258 289.223 64.2258C297.914 64.2258 304.919 66.3235 310.238 70.5189C315.557 74.6394 318.404 80.4081 318.779 87.825H297.989C297.839 85.2778 296.902 83.2924 295.179 81.869C293.456 80.3706 291.246 79.6215 288.549 79.6215C286.227 79.6215 284.354 80.2583 282.93 81.5319C281.507 82.7306 280.795 84.4911 280.795 86.8136C280.795 89.3608 281.994 91.3461 284.391 92.7696C286.789 94.193 290.534 95.7288 295.629 97.377C300.723 99.1002 304.844 100.748 307.99 102.322C311.212 103.895 313.984 106.18 316.306 109.177C318.629 112.173 319.79 116.032 319.79 120.751C319.79 125.247 318.629 129.33 316.306 133.001C314.059 136.672 310.762 139.593 306.417 141.766C302.072 143.939 296.94 145.025 291.021 145.025ZM366.565 127.944V144.238H356.788C349.821 144.238 344.389 142.553 340.494 139.181C336.598 135.735 334.65 130.154 334.65 122.437V97.4894H327.008V81.5319H334.65V66.2486H353.867V81.5319H366.453V97.4894H353.867V122.662C353.867 124.535 354.316 125.883 355.215 126.707C356.114 127.532 357.612 127.944 359.71 127.944H366.565ZM373.448 112.773C373.448 106.33 374.647 100.673 377.044 95.8038C379.517 90.9341 382.85 87.1882 387.046 84.566C391.241 81.9439 395.924 80.6328 401.093 80.6328C405.513 80.6328 409.371 81.5319 412.668 83.3299C416.039 85.1279 418.624 87.4879 420.422 90.4097V81.5319H439.638V144.238H420.422V135.36C418.549 138.282 415.927 140.642 412.555 142.44C409.259 144.238 405.401 145.137 400.981 145.137C395.886 145.137 391.241 143.826 387.046 141.204C382.85 138.507 379.517 134.724 377.044 129.854C374.647 124.909 373.448 119.216 373.448 112.773ZM420.422 112.885C420.422 108.09 419.073 104.307 416.376 101.535C413.754 98.763 410.533 97.377 406.712 97.377C402.891 97.377 399.632 98.763 396.935 101.535C394.313 104.232 393.002 107.978 393.002 112.773C393.002 117.567 394.313 121.388 396.935 124.235C399.632 127.007 402.891 128.393 406.712 128.393C410.533 128.393 413.754 127.007 416.376 124.235C419.073 121.463 420.422 117.68 420.422 112.885ZM472.757 91.9829C475.005 88.5367 477.814 85.8397 481.185 83.8918C484.557 81.869 488.303 80.8576 492.423 80.8576V101.198H487.141C482.347 101.198 478.751 102.247 476.353 104.344C473.956 106.367 472.757 109.963 472.757 115.133V144.238H453.541V81.5319H472.757V91.9829ZM560.719 111.874C560.719 113.672 560.606 115.545 560.381 117.493H516.891C517.191 121.388 518.427 124.385 520.6 126.483C522.847 128.505 525.582 129.517 528.803 129.517C533.598 129.517 536.932 127.494 538.805 123.449H559.258C558.209 127.569 556.298 131.277 553.526 134.574C550.829 137.87 547.421 140.455 543.3 142.328C539.18 144.201 534.572 145.137 529.478 145.137C523.334 145.137 517.865 143.826 513.071 141.204C508.276 138.582 504.53 134.836 501.833 129.966C499.136 125.097 497.787 119.403 497.787 112.885C497.787 106.367 499.098 100.673 501.721 95.8038C504.418 90.9341 508.163 87.1882 512.958 84.566C517.753 81.9439 523.259 80.6328 529.478 80.6328C535.546 80.6328 540.94 81.9065 545.66 84.4537C550.38 87.0009 554.051 90.6344 556.673 95.3542C559.37 100.074 560.719 105.581 560.719 111.874ZM541.053 106.817C541.053 103.52 539.929 100.898 537.681 98.9503C535.434 97.0024 532.624 96.0285 529.253 96.0285C526.031 96.0285 523.297 96.965 521.049 98.8379C518.877 100.711 517.528 103.37 517.004 106.817H541.053ZM600.411 65.3496C608.727 65.3496 615.994 66.9978 622.212 70.2942C628.431 73.5906 633.225 78.2355 636.597 84.2289C640.043 90.1474 641.766 97.0024 641.766 104.794C641.766 112.51 640.043 119.365 636.597 125.359C633.225 131.352 628.393 135.997 622.1 139.294C615.882 142.59 608.652 144.238 600.411 144.238H570.856V65.3496H600.411ZM599.175 127.606C606.442 127.606 612.099 125.621 616.144 121.65C620.19 117.68 622.212 112.061 622.212 104.794C622.212 97.5269 620.19 91.8706 616.144 87.825C612.099 83.7794 606.442 81.7566 599.175 81.7566H590.073V127.606H599.175ZM711.615 111.874C711.615 113.672 711.503 115.545 711.278 117.493H667.788C668.088 121.388 669.324 124.385 671.497 126.483C673.744 128.505 676.479 129.517 679.7 129.517C684.495 129.517 687.829 127.494 689.702 123.449H710.155C709.106 127.569 707.195 131.277 704.423 134.574C701.726 137.87 698.318 140.455 694.197 142.328C690.077 144.201 685.469 145.137 680.375 145.137C674.231 145.137 668.762 143.826 663.968 141.204C659.173 138.582 655.427 134.836 652.73 129.966C650.033 125.097 648.684 119.403 648.684 112.885C648.684 106.367 649.995 100.673 652.618 95.8038C655.315 90.9341 659.06 87.1882 663.855 84.566C668.65 81.9439 674.156 80.6328 680.375 80.6328C686.443 80.6328 691.837 81.9065 696.557 84.4537C701.277 87.0009 704.948 90.6344 707.57 95.3542C710.267 100.074 711.615 105.581 711.615 111.874ZM691.949 106.817C691.949 103.52 690.826 100.898 688.578 98.9503C686.331 97.0024 683.521 96.0285 680.15 96.0285C676.928 96.0285 674.194 96.965 671.946 98.8379C669.774 100.711 668.425 103.37 667.901 106.817H691.949ZM747.263 145.137C741.794 145.137 736.924 144.201 732.654 142.328C728.383 140.455 725.012 137.908 722.54 134.686C720.067 131.39 718.681 127.719 718.382 123.673H737.374C737.598 125.846 738.61 127.606 740.408 128.955C742.206 130.304 744.416 130.978 747.038 130.978C749.435 130.978 751.271 130.528 752.544 129.629C753.893 128.655 754.567 127.419 754.567 125.921C754.567 124.123 753.631 122.812 751.758 121.988C749.885 121.089 746.851 120.115 742.655 119.066C738.16 118.017 734.414 116.931 731.418 115.807C728.421 114.608 725.836 112.773 723.664 110.3C721.491 107.753 720.405 104.344 720.405 100.074C720.405 96.478 721.379 93.2191 723.326 90.2973C725.349 87.3006 728.271 84.9406 732.092 83.2175C735.988 81.4944 740.595 80.6328 745.914 80.6328C753.781 80.6328 759.961 82.5807 764.456 86.4765C769.026 90.3722 771.649 95.5415 772.323 101.984H754.567C754.268 99.8119 753.294 98.0888 751.645 96.8151C750.072 95.5415 747.974 94.9047 745.352 94.9047C743.105 94.9047 741.382 95.3542 740.183 96.2533C738.984 97.0774 738.385 98.2386 738.385 99.737C738.385 101.535 739.321 102.884 741.194 103.783C743.142 104.682 746.139 105.581 750.185 106.48C754.829 107.678 758.613 108.877 761.535 110.076C764.456 111.199 767.004 113.072 769.176 115.695C771.424 118.242 772.585 121.688 772.66 126.033C772.66 129.704 771.611 133.001 769.513 135.922C767.491 138.769 764.531 141.017 760.636 142.665C756.815 144.313 752.357 145.137 747.263 145.137ZM822.737 144.238L803.633 117.942V144.238H784.416V61.0792H803.633V107.041L822.625 81.5319H846.336L820.265 112.997L846.561 144.238H822.737Z" fill="black"/>
<path d="M268.597 202.175C266.542 202.175 264.685 201.823 263.024 201.12C261.392 200.416 260.097 199.403 259.141 198.08C258.184 196.757 257.691 195.196 257.663 193.394H263.995C264.08 194.605 264.502 195.561 265.262 196.265C266.05 196.969 267.119 197.32 268.47 197.32C269.849 197.32 270.932 196.997 271.72 196.349C272.508 195.674 272.902 194.802 272.902 193.732C272.902 192.86 272.635 192.142 272.1 191.579C271.566 191.016 270.89 190.58 270.074 190.271C269.286 189.933 268.188 189.567 266.781 189.173C264.868 188.61 263.306 188.061 262.096 187.527C260.914 186.964 259.886 186.134 259.014 185.036C258.17 183.91 257.748 182.419 257.748 180.561C257.748 178.817 258.184 177.297 259.056 176.002C259.929 174.708 261.153 173.723 262.729 173.047C264.305 172.344 266.106 171.992 268.132 171.992C271.172 171.992 273.634 172.738 275.52 174.229C277.433 175.693 278.489 177.747 278.686 180.393H272.185C272.128 179.379 271.692 178.549 270.876 177.902C270.088 177.226 269.033 176.889 267.71 176.889C266.556 176.889 265.628 177.184 264.924 177.775C264.249 178.366 263.911 179.225 263.911 180.35C263.911 181.138 264.164 181.8 264.671 182.334C265.205 182.841 265.853 183.263 266.613 183.601C267.401 183.91 268.498 184.276 269.905 184.698C271.819 185.261 273.381 185.824 274.591 186.387C275.801 186.95 276.842 187.794 277.715 188.92C278.587 190.045 279.023 191.523 279.023 193.352C279.023 194.928 278.615 196.392 277.799 197.742C276.983 199.093 275.787 200.177 274.211 200.993C272.635 201.781 270.764 202.175 268.597 202.175ZM287.144 175.707C286.103 175.707 285.231 175.383 284.527 174.736C283.852 174.06 283.514 173.23 283.514 172.245C283.514 171.26 283.852 170.444 284.527 169.797C285.231 169.121 286.103 168.784 287.144 168.784C288.186 168.784 289.044 169.121 289.719 169.797C290.423 170.444 290.775 171.26 290.775 172.245C290.775 173.23 290.423 174.06 289.719 174.736C289.044 175.383 288.186 175.707 287.144 175.707ZM290.057 178.493V201.879H284.147V178.493H290.057ZM302.777 183.347V194.661C302.777 195.449 302.96 196.026 303.326 196.392C303.72 196.729 304.367 196.898 305.268 196.898H308.011V201.879H304.297C299.315 201.879 296.825 199.459 296.825 194.619V183.347H294.039V178.493H296.825V172.71H302.777V178.493H308.011V183.347H302.777ZM318.721 195.674L313.782 207.536H309.983L312.727 195.674H318.721ZM343.213 202.175C341.159 202.175 339.301 201.823 337.641 201.12C336.008 200.416 334.714 199.403 333.757 198.08C332.8 196.757 332.308 195.196 332.28 193.394H338.612C338.696 194.605 339.118 195.561 339.878 196.265C340.666 196.969 341.735 197.32 343.086 197.32C344.465 197.32 345.549 196.997 346.337 196.349C347.125 195.674 347.519 194.802 347.519 193.732C347.519 192.86 347.251 192.142 346.717 191.579C346.182 191.016 345.507 190.58 344.69 190.271C343.902 189.933 342.805 189.567 341.398 189.173C339.484 188.61 337.922 188.061 336.712 187.527C335.53 186.964 334.503 186.134 333.63 185.036C332.786 183.91 332.364 182.419 332.364 180.561C332.364 178.817 332.8 177.297 333.673 176.002C334.545 174.708 335.769 173.723 337.345 173.047C338.921 172.344 340.722 171.992 342.749 171.992C345.788 171.992 348.25 172.738 350.136 174.229C352.05 175.693 353.105 177.747 353.302 180.393H346.801C346.745 179.379 346.309 178.549 345.492 177.902C344.704 177.226 343.649 176.889 342.326 176.889C341.173 176.889 340.244 177.184 339.54 177.775C338.865 178.366 338.527 179.225 338.527 180.35C338.527 181.138 338.78 181.8 339.287 182.334C339.822 182.841 340.469 183.263 341.229 183.601C342.017 183.91 343.114 184.276 344.522 184.698C346.435 185.261 347.997 185.824 349.207 186.387C350.417 186.95 351.459 187.794 352.331 188.92C353.204 190.045 353.64 191.523 353.64 193.352C353.64 194.928 353.232 196.392 352.416 197.742C351.599 199.093 350.403 200.177 348.827 200.993C347.251 201.781 345.38 202.175 343.213 202.175ZM365.644 183.347V194.661C365.644 195.449 365.827 196.026 366.193 196.392C366.587 196.729 367.234 196.898 368.135 196.898H370.879V201.879H367.164C362.183 201.879 359.692 199.459 359.692 194.619V183.347H356.906V178.493H359.692V172.71H365.644V178.493H370.879V183.347H365.644ZM373.61 190.102C373.61 187.738 374.074 185.641 375.003 183.812C375.96 181.983 377.24 180.575 378.844 179.59C380.477 178.605 382.292 178.113 384.29 178.113C386.035 178.113 387.555 178.465 388.849 179.168C390.172 179.872 391.227 180.758 392.015 181.828V178.493H397.967V201.879H392.015V198.46C391.255 199.558 390.2 200.472 388.849 201.204C387.526 201.908 385.993 202.259 384.248 202.259C382.278 202.259 380.477 201.753 378.844 200.74C377.24 199.726 375.96 198.305 375.003 196.476C374.074 194.619 373.61 192.494 373.61 190.102ZM392.015 190.186C392.015 188.751 391.734 187.527 391.171 186.514C390.608 185.472 389.848 184.684 388.891 184.15C387.934 183.587 386.907 183.305 385.81 183.305C384.712 183.305 383.699 183.573 382.77 184.107C381.842 184.642 381.082 185.43 380.491 186.471C379.928 187.484 379.646 188.695 379.646 190.102C379.646 191.509 379.928 192.747 380.491 193.817C381.082 194.858 381.842 195.66 382.77 196.223C383.727 196.786 384.74 197.067 385.81 197.067C386.907 197.067 387.934 196.8 388.891 196.265C389.848 195.702 390.608 194.914 391.171 193.901C391.734 192.86 392.015 191.621 392.015 190.186ZM426.113 178.493L411.633 212.939H405.344L410.409 201.288L401.038 178.493H407.665L413.702 194.83L419.823 178.493H426.113ZM462.026 201.879L458.818 198.713C456.088 201.162 452.753 202.386 448.813 202.386C446.646 202.386 444.733 202.02 443.072 201.288C441.44 200.529 440.174 199.473 439.273 198.122C438.372 196.743 437.922 195.153 437.922 193.352C437.922 191.41 438.471 189.666 439.568 188.118C440.666 186.57 442.284 185.317 444.423 184.361C443.663 183.432 443.114 182.545 442.777 181.701C442.439 180.829 442.27 179.9 442.27 178.915C442.27 177.564 442.622 176.354 443.325 175.285C444.029 174.187 445.028 173.329 446.323 172.71C447.645 172.09 449.179 171.781 450.924 171.781C452.697 171.781 454.217 172.119 455.483 172.794C456.749 173.469 457.692 174.37 458.311 175.496C458.931 176.621 459.198 177.874 459.113 179.253H453.372C453.401 178.324 453.175 177.62 452.697 177.142C452.219 176.635 451.571 176.382 450.755 176.382C449.967 176.382 449.306 176.621 448.771 177.1C448.265 177.55 448.011 178.141 448.011 178.873C448.011 179.576 448.222 180.28 448.644 180.984C449.067 181.659 449.756 182.503 450.713 183.516L458.143 190.862C458.199 190.805 458.241 190.749 458.269 190.693C458.297 190.636 458.325 190.58 458.354 190.524L460.76 186.514H466.923L463.968 191.706C463.405 192.803 462.8 193.845 462.153 194.83L469.287 201.879H462.026ZM448.982 197.489C451.29 197.489 453.33 196.673 455.103 195.041L447.842 187.864C445.113 189.075 443.748 190.791 443.748 193.014C443.748 194.281 444.226 195.35 445.183 196.223C446.14 197.067 447.406 197.489 448.982 197.489ZM500.466 172.414V177.184H488.182V184.741H497.596V189.426H488.182V201.879H482.272V172.414H500.466ZM515.042 202.259C512.79 202.259 510.764 201.767 508.963 200.782C507.162 199.769 505.74 198.347 504.699 196.518C503.686 194.689 503.18 192.578 503.18 190.186C503.18 187.794 503.7 185.683 504.741 183.854C505.811 182.025 507.26 180.618 509.089 179.633C510.919 178.62 512.959 178.113 515.21 178.113C517.462 178.113 519.502 178.62 521.331 179.633C523.161 180.618 524.596 182.025 525.637 183.854C526.707 185.683 527.241 187.794 527.241 190.186C527.241 192.578 526.693 194.689 525.595 196.518C524.526 198.347 523.062 199.769 521.205 200.782C519.376 201.767 517.321 202.259 515.042 202.259ZM515.042 197.109C516.111 197.109 517.11 196.856 518.039 196.349C518.996 195.815 519.755 195.027 520.318 193.985C520.881 192.944 521.163 191.678 521.163 190.186C521.163 187.963 520.572 186.26 519.39 185.078C518.236 183.868 516.815 183.263 515.126 183.263C513.437 183.263 512.016 183.868 510.862 185.078C509.737 186.26 509.174 187.963 509.174 190.186C509.174 192.409 509.723 194.126 510.82 195.336C511.946 196.518 513.353 197.109 515.042 197.109ZM530.057 190.186C530.057 187.766 530.549 185.655 531.534 183.854C532.519 182.025 533.884 180.618 535.629 179.633C537.374 178.62 539.372 178.113 541.623 178.113C544.522 178.113 546.914 178.845 548.8 180.308C550.714 181.743 551.994 183.77 552.641 186.387H546.267C545.929 185.374 545.352 184.586 544.536 184.023C543.748 183.432 542.763 183.136 541.581 183.136C539.893 183.136 538.556 183.756 537.571 184.994C536.586 186.204 536.093 187.935 536.093 190.186C536.093 192.409 536.586 194.14 537.571 195.378C538.556 196.589 539.893 197.194 541.581 197.194C543.973 197.194 545.535 196.124 546.267 193.985H552.641C551.994 196.518 550.714 198.53 548.8 200.022C546.886 201.514 544.494 202.259 541.623 202.259C539.372 202.259 537.374 201.767 535.629 200.782C533.884 199.769 532.519 198.362 531.534 196.56C530.549 194.731 530.057 192.606 530.057 190.186ZM579.049 178.493V201.879H573.097V198.924C572.337 199.938 571.338 200.74 570.099 201.331C568.889 201.893 567.567 202.175 566.131 202.175C564.302 202.175 562.684 201.795 561.277 201.035C559.87 200.247 558.758 199.107 557.942 197.616C557.154 196.096 556.76 194.295 556.76 192.212V178.493H562.67V191.368C562.67 193.226 563.134 194.661 564.063 195.674C564.992 196.659 566.258 197.151 567.862 197.151C569.494 197.151 570.775 196.659 571.704 195.674C572.632 194.661 573.097 193.226 573.097 191.368V178.493H579.049ZM593.829 202.259C591.916 202.259 590.199 201.922 588.679 201.246C587.159 200.543 585.949 199.6 585.049 198.418C584.176 197.236 583.698 195.927 583.613 194.492H589.566C589.678 195.393 590.114 196.138 590.874 196.729C591.662 197.32 592.633 197.616 593.787 197.616C594.913 197.616 595.785 197.391 596.404 196.94C597.052 196.49 597.375 195.913 597.375 195.21C597.375 194.45 596.981 193.887 596.193 193.521C595.433 193.127 594.209 192.705 592.521 192.255C590.776 191.832 589.34 191.396 588.215 190.946C587.117 190.496 586.16 189.806 585.344 188.878C584.556 187.949 584.162 186.696 584.162 185.12C584.162 183.826 584.528 182.644 585.26 181.575C586.02 180.505 587.089 179.661 588.468 179.042C589.875 178.423 591.522 178.113 593.407 178.113C596.193 178.113 598.416 178.817 600.077 180.224C601.737 181.603 602.652 183.474 602.821 185.838H597.164C597.08 184.909 596.686 184.178 595.982 183.643C595.307 183.08 594.392 182.799 593.238 182.799C592.169 182.799 591.339 182.996 590.748 183.39C590.185 183.784 589.903 184.332 589.903 185.036C589.903 185.824 590.297 186.429 591.085 186.851C591.873 187.245 593.097 187.653 594.758 188.075C596.446 188.498 597.84 188.934 598.937 189.384C600.035 189.834 600.977 190.538 601.765 191.495C602.582 192.423 603.004 193.662 603.032 195.21C603.032 196.56 602.652 197.771 601.892 198.84C601.16 199.909 600.091 200.754 598.684 201.373C597.305 201.964 595.687 202.259 593.829 202.259Z" fill="#929292"/>
</svg>
