<svg width="191" height="174" viewBox="0 0 191 174" fill="none" xmlns="http://www.w3.org/2000/svg">
<path d="M62.6646 5.51002C74.025 8.15485 81.0897 19.5078 78.4448 30.8686C75.7985 42.2275 64.4455 49.2923 53.0851 46.6459C41.7247 44.0011 34.6585 32.6481 37.3049 21.2873C39.9497 9.92838 51.3042 2.86362 62.6646 5.51002Z" fill="black"/>
<mask id="mask0_25_185" style="mask-type:luminance" maskUnits="userSpaceOnUse" x="1" y="140" width="58" height="46">
<path d="M1.52588 140.639H58.1954V185.777H1.52588V140.639Z" fill="white"/>
</mask>
<g mask="url(#mask0_25_185)">
<path d="M10.3636 140.885L1.52832 185.483H57.8659L49.0306 140.885H10.3636Z" fill="black"/>
</g>
<mask id="mask1_25_185" style="mask-type:luminance" maskUnits="userSpaceOnUse" x="22" y="49" width="168" height="138">
<path d="M22.0098 49.6152H189.471V186.15H22.0098V49.6152Z" fill="white"/>
</mask>
<g mask="url(#mask1_25_185)">
<path d="M87.5991 97.768H96.5973V118.326C96.3292 117.84 96.0363 117.366 95.6968 116.916C93.4731 113.975 90.0194 112.257 86.334 112.257L57.6035 112.259C56.6111 102.537 57.3616 92.2088 58.319 83.0546C47.2253 79.652 40.6474 74.8475 39.5894 74.0373C35.4904 70.8445 34.7573 64.9327 37.9384 60.8467C39.7337 58.5487 42.4355 57.2314 45.3512 57.2314C47.4598 57.2314 49.4517 57.9163 51.1174 59.2161L51.3462 59.3764C51.5968 59.5498 52.0558 59.8529 52.6839 60.2362C53.8861 60.9691 55.8825 62.0795 58.584 63.2191C58.9395 63.3677 59.314 63.5207 59.7017 63.6722C58.6393 56.8817 54.664 50.9887 48.7815 50.062C40.6226 48.7724 29.4297 54.129 25.9264 68.2395C21.2241 87.6685 20.9384 100.071 25.1861 120.638C26.6914 125.876 28.9763 129.336 31.6764 131.587C33.8287 134.12 37.0344 135.733 40.6194 135.733H70.8131L60.8005 171.108C59.0329 177.345 62.6599 183.833 68.8953 185.599C69.9634 185.901 71.0403 186.046 72.0982 186.046C77.216 186.046 81.9228 182.671 83.3873 177.504L96.5969 130.836V185.48H106.612V97.7692H170.459V185.48H180.475V97.7692H189.473V88.3803H87.5979V97.7692L87.5991 97.768Z" fill="black"/>
</g>
<path d="M109.176 82.1599C105.464 83.317 101.753 84.2365 98.0547 84.933H146.517V79.8764L165.846 36.9051L159.852 34.2092L139.993 78.3631H114.214C113.064 80.1117 111.327 81.4902 109.178 82.1622L109.176 82.1599Z" fill="black"/>
<path d="M51.7078 61.8436C51.0389 61.4356 50.5522 61.1106 50.2579 60.9081C50.1107 60.8046 50.0131 60.7332 49.965 60.6953L49.9635 60.6968C46.6935 58.1452 41.9751 58.731 39.422 62.0025C36.8719 65.2724 37.4547 69.9939 40.7276 72.5455V72.5441C41.4985 73.1342 56.4277 84.5994 81.6509 84.6315H81.6713C89.7268 84.6315 98.7863 83.4337 108.615 80.3635C112.574 79.1278 114.782 74.9151 113.547 70.9541C112.309 66.995 108.099 64.7873 104.137 66.0228C95.7407 68.6414 88.2347 69.6047 81.6511 69.6061C71.3879 69.6047 63.3207 67.2527 57.8533 64.9475C55.1211 63.7978 53.0474 62.6597 51.7067 61.8436L51.7078 61.8436Z" fill="black"/>
</svg>
